<mxfile host="app.diagrams.net" modified="2024-05-06T17:41:06.464Z" agent="Mozilla/5.0 (Windows NT 10.0; Win64; x64) AppleWebKit/537.36 (KHTML, like Gecko) Chrome/124.0.0.0 Safari/537.36" etag="Rj_U8fbFVBYh15LdVP88" version="24.3.1" type="device">
  <diagram name="Page-1" id="a_6F3iHdbAYzGDKUPsuO">
    <mxGraphModel dx="2214" dy="1400" grid="1" gridSize="10" guides="1" tooltips="1" connect="1" arrows="1" fold="1" page="1" pageScale="1" pageWidth="1100" pageHeight="850" math="0" shadow="0">
      <root>
        <mxCell id="0" />
        <mxCell id="1" parent="0" />
        <mxCell id="5kWYPgmSOFq2bC-scUEm-1" value="AWS Account" style="points=[[0,0],[0.25,0],[0.5,0],[0.75,0],[1,0],[1,0.25],[1,0.5],[1,0.75],[1,1],[0.75,1],[0.5,1],[0.25,1],[0,1],[0,0.75],[0,0.5],[0,0.25]];outlineConnect=0;gradientColor=none;html=1;whiteSpace=wrap;fontSize=12;fontStyle=0;container=1;pointerEvents=0;collapsible=0;recursiveResize=0;shape=mxgraph.aws4.group;grIcon=mxgraph.aws4.group_account;strokeColor=#CD2264;fillColor=none;verticalAlign=top;align=left;spacingLeft=30;fontColor=#CD2264;dashed=0;" vertex="1" parent="1">
          <mxGeometry x="80" y="40" width="960" height="520" as="geometry" />
        </mxCell>
        <mxCell id="5kWYPgmSOFq2bC-scUEm-2" value="VPC-1 (192.168.0.0/24)" style="points=[[0,0],[0.25,0],[0.5,0],[0.75,0],[1,0],[1,0.25],[1,0.5],[1,0.75],[1,1],[0.75,1],[0.5,1],[0.25,1],[0,1],[0,0.75],[0,0.5],[0,0.25]];outlineConnect=0;gradientColor=none;html=1;whiteSpace=wrap;fontSize=12;fontStyle=0;container=1;pointerEvents=0;collapsible=0;recursiveResize=0;shape=mxgraph.aws4.group;grIcon=mxgraph.aws4.group_vpc2;strokeColor=#8C4FFF;fillColor=none;verticalAlign=top;align=left;spacingLeft=30;fontColor=#AAB7B8;dashed=0;" vertex="1" parent="5kWYPgmSOFq2bC-scUEm-1">
          <mxGeometry x="120" y="40" width="760" height="440" as="geometry" />
        </mxCell>
        <mxCell id="5kWYPgmSOFq2bC-scUEm-4" value="S1 (192.168.0.0/25)" style="points=[[0,0],[0.25,0],[0.5,0],[0.75,0],[1,0],[1,0.25],[1,0.5],[1,0.75],[1,1],[0.75,1],[0.5,1],[0.25,1],[0,1],[0,0.75],[0,0.5],[0,0.25]];outlineConnect=0;gradientColor=none;html=1;whiteSpace=wrap;fontSize=12;fontStyle=0;container=1;pointerEvents=0;collapsible=0;recursiveResize=0;shape=mxgraph.aws4.group;grIcon=mxgraph.aws4.group_security_group;grStroke=0;strokeColor=#7AA116;fillColor=#F2F6E8;verticalAlign=top;align=left;spacingLeft=30;fontColor=#248814;dashed=0;" vertex="1" parent="5kWYPgmSOFq2bC-scUEm-2">
          <mxGeometry x="150" y="80" width="210" height="240" as="geometry" />
        </mxCell>
        <mxCell id="5kWYPgmSOFq2bC-scUEm-5" value="" style="outlineConnect=0;dashed=0;verticalLabelPosition=bottom;verticalAlign=top;align=center;html=1;shape=mxgraph.aws3.ec2;fillColor=#F58534;gradientColor=none;" vertex="1" parent="5kWYPgmSOFq2bC-scUEm-4">
          <mxGeometry x="60" y="60" width="76.5" height="93" as="geometry" />
        </mxCell>
        <mxCell id="5kWYPgmSOFq2bC-scUEm-3" value="S2 (192.168.0.128/25)" style="points=[[0,0],[0.25,0],[0.5,0],[0.75,0],[1,0],[1,0.25],[1,0.5],[1,0.75],[1,1],[0.75,1],[0.5,1],[0.25,1],[0,1],[0,0.75],[0,0.5],[0,0.25]];outlineConnect=0;gradientColor=none;html=1;whiteSpace=wrap;fontSize=12;fontStyle=0;container=1;pointerEvents=0;collapsible=0;recursiveResize=0;shape=mxgraph.aws4.group;grIcon=mxgraph.aws4.group_security_group;grStroke=0;strokeColor=#00A4A6;fillColor=#E6F6F7;verticalAlign=top;align=left;spacingLeft=30;fontColor=#147EBA;dashed=0;" vertex="1" parent="5kWYPgmSOFq2bC-scUEm-2">
          <mxGeometry x="440" y="80" width="200" height="240" as="geometry" />
        </mxCell>
        <mxCell id="5kWYPgmSOFq2bC-scUEm-6" value="" style="outlineConnect=0;dashed=0;verticalLabelPosition=bottom;verticalAlign=top;align=center;html=1;shape=mxgraph.aws3.ec2;fillColor=#F58534;gradientColor=none;" vertex="1" parent="5kWYPgmSOFq2bC-scUEm-3">
          <mxGeometry x="50" y="73.5" width="76.5" height="93" as="geometry" />
        </mxCell>
        <mxCell id="5kWYPgmSOFq2bC-scUEm-16" style="edgeStyle=orthogonalEdgeStyle;rounded=0;orthogonalLoop=1;jettySize=auto;html=1;startArrow=classic;startFill=1;" edge="1" parent="5kWYPgmSOFq2bC-scUEm-1" source="5kWYPgmSOFq2bC-scUEm-15" target="5kWYPgmSOFq2bC-scUEm-4">
          <mxGeometry relative="1" as="geometry" />
        </mxCell>
        <mxCell id="5kWYPgmSOFq2bC-scUEm-15" value="Internet&#xa;gateway" style="sketch=0;outlineConnect=0;fontColor=#232F3E;gradientColor=none;strokeColor=#232F3E;fillColor=#ffffff;dashed=0;verticalLabelPosition=bottom;verticalAlign=top;align=center;html=1;fontSize=12;fontStyle=0;aspect=fixed;shape=mxgraph.aws4.resourceIcon;resIcon=mxgraph.aws4.internet_gateway;" vertex="1" parent="5kWYPgmSOFq2bC-scUEm-1">
          <mxGeometry x="90" y="213" width="60" height="60" as="geometry" />
        </mxCell>
        <mxCell id="5kWYPgmSOFq2bC-scUEm-19" style="edgeStyle=orthogonalEdgeStyle;rounded=0;orthogonalLoop=1;jettySize=auto;html=1;startArrow=classic;startFill=1;" edge="1" parent="5kWYPgmSOFq2bC-scUEm-1" source="5kWYPgmSOFq2bC-scUEm-18" target="5kWYPgmSOFq2bC-scUEm-3">
          <mxGeometry relative="1" as="geometry">
            <Array as="points">
              <mxPoint x="70" y="80" />
              <mxPoint x="510" y="80" />
              <mxPoint x="510" y="240" />
            </Array>
          </mxGeometry>
        </mxCell>
        <mxCell id="5kWYPgmSOFq2bC-scUEm-18" value="NAT gateway" style="sketch=0;outlineConnect=0;fontColor=#232F3E;gradientColor=none;strokeColor=#232F3E;fillColor=#ffffff;dashed=0;verticalLabelPosition=bottom;verticalAlign=top;align=center;html=1;fontSize=12;fontStyle=0;aspect=fixed;shape=mxgraph.aws4.resourceIcon;resIcon=mxgraph.aws4.nat_gateway;" vertex="1" parent="5kWYPgmSOFq2bC-scUEm-1">
          <mxGeometry x="40" y="110" width="60" height="60" as="geometry" />
        </mxCell>
        <mxCell id="5kWYPgmSOFq2bC-scUEm-17" style="edgeStyle=orthogonalEdgeStyle;rounded=0;orthogonalLoop=1;jettySize=auto;html=1;startArrow=classic;startFill=1;" edge="1" parent="1" source="5kWYPgmSOFq2bC-scUEm-7" target="5kWYPgmSOFq2bC-scUEm-15">
          <mxGeometry relative="1" as="geometry" />
        </mxCell>
        <mxCell id="5kWYPgmSOFq2bC-scUEm-7" value="" style="image;aspect=fixed;perimeter=ellipsePerimeter;html=1;align=center;shadow=0;dashed=0;spacingTop=3;image=img/lib/active_directory/internet_globe.svg;" vertex="1" parent="1">
          <mxGeometry x="-40" y="250" width="50" height="50" as="geometry" />
        </mxCell>
        <mxCell id="5kWYPgmSOFq2bC-scUEm-9" value="" style="rounded=0;whiteSpace=wrap;html=1;" vertex="1" parent="1">
          <mxGeometry x="365" y="-90" width="160" height="60" as="geometry" />
        </mxCell>
        <mxCell id="5kWYPgmSOFq2bC-scUEm-10" value="" style="rounded=0;whiteSpace=wrap;html=1;" vertex="1" parent="1">
          <mxGeometry x="710" y="-95" width="200" height="60" as="geometry" />
        </mxCell>
        <mxCell id="5kWYPgmSOFq2bC-scUEm-11" style="rounded=0;orthogonalLoop=1;jettySize=auto;html=1;entryX=0.384;entryY=0.013;entryDx=0;entryDy=0;entryPerimeter=0;endArrow=none;endFill=0;" edge="1" parent="1" source="5kWYPgmSOFq2bC-scUEm-9" target="5kWYPgmSOFq2bC-scUEm-4">
          <mxGeometry relative="1" as="geometry" />
        </mxCell>
        <mxCell id="5kWYPgmSOFq2bC-scUEm-12" style="rounded=0;orthogonalLoop=1;jettySize=auto;html=1;entryX=0.67;entryY=0.009;entryDx=0;entryDy=0;entryPerimeter=0;endArrow=none;endFill=0;" edge="1" parent="1" source="5kWYPgmSOFq2bC-scUEm-10" target="5kWYPgmSOFq2bC-scUEm-3">
          <mxGeometry relative="1" as="geometry" />
        </mxCell>
        <mxCell id="5kWYPgmSOFq2bC-scUEm-13" value="192.168.0.0/24 - local&lt;div&gt;0.0.0.0/0 - NAT Gateway&lt;/div&gt;" style="text;html=1;align=center;verticalAlign=middle;whiteSpace=wrap;rounded=0;" vertex="1" parent="1">
          <mxGeometry x="730" y="-80" width="180" height="30" as="geometry" />
        </mxCell>
        <mxCell id="5kWYPgmSOFq2bC-scUEm-14" value="192.168.0.0/24 - local&lt;div&gt;0.0.0.0/0 - IGW&lt;/div&gt;" style="text;html=1;align=center;verticalAlign=middle;whiteSpace=wrap;rounded=0;" vertex="1" parent="1">
          <mxGeometry x="380" y="-80" width="130" height="30" as="geometry" />
        </mxCell>
        <mxCell id="5kWYPgmSOFq2bC-scUEm-20" style="edgeStyle=orthogonalEdgeStyle;rounded=0;orthogonalLoop=1;jettySize=auto;html=1;entryX=0.75;entryY=0;entryDx=0;entryDy=0;startArrow=classic;startFill=1;" edge="1" parent="1" source="5kWYPgmSOFq2bC-scUEm-18" target="5kWYPgmSOFq2bC-scUEm-7">
          <mxGeometry relative="1" as="geometry" />
        </mxCell>
      </root>
    </mxGraphModel>
  </diagram>
</mxfile>
